<svg xmlns="http://www.w3.org/2000/svg">
  <defs>
    <symbol
      id="icon-person"
      viewBox="0 0 18 18"
    >
      <path
        d="M9 9C10.6575 9 12 7.6575 12 6C12 4.3425 10.6575 3 9 3C7.3425 3 6 4.3425 6 6C6 7.6575 7.3425 9 9 9ZM9 10.5C6.9975 10.5 3 11.505 3 13.5V14.25C3 14.6625 3.3375 15 3.75 15H14.25C14.6625 15 15 14.6625 15 14.25V13.5C15 11.505 11.0025 10.5 9 10.5Z"
      />
    </symbol>
    <symbol
      id="icon-phone"
      viewBox="0 0 18 18"
    >
      <path
        d="M13.996 11.1226L12.1579 10.9127C11.7164 10.862 11.2822 11.014 10.971 11.3252L9.63945 12.6568C7.59144 11.6147 5.91251 9.94296 4.87041 7.8877L6.20922 6.54888C6.5204 6.2377 6.67237 5.80349 6.62171 5.36205L6.41185 3.53836C6.325 2.80745 5.70988 2.25745 4.97173 2.25745H3.71976C2.902 2.25745 2.22175 2.93771 2.2724 3.75547C2.65595 9.93572 7.59868 14.8712 13.7717 15.2548C14.5894 15.3054 15.2697 14.6252 15.2697 13.8074V12.5555C15.2769 11.8245 14.7269 11.2094 13.996 11.1226Z"
      />
    </symbol>
    <symbol
      id="icon-mail"
      viewBox="0 0 18 18"
    >
      <path
        d="M15 3H3C2.175 3 1.5075 3.675 1.5075 4.5L1.5 13.5C1.5 14.325 2.175 15 3 15H15C15.825 15 16.5 14.325 16.5 13.5V4.5C16.5 3.675 15.825 3 15 3ZM14.7 6.1875L9.3975 9.5025C9.1575 9.6525 8.8425 9.6525 8.6025 9.5025L3.3 6.1875C3.1125 6.0675 3 5.865 3 5.6475C3 5.145 3.5475 4.845 3.975 5.1075L9 8.25L14.025 5.1075C14.4525 4.845 15 5.145 15 5.6475C15 5.865 14.8875 6.0675 14.7 6.1875Z"
      />

    </symbol>
    <symbol
      id="icon-uncheck"
      viewBox="0 0 16 15"
    >
      <path
        d="M14.2222 1.66667V13.3333H1.77778V1.66667H14.2222ZM14.2222 0H1.77778C0.8 0 0 0.75 0 1.66667V13.3333C0 14.25 0.8 15 1.77778 15H14.2222C15.2 15 16 14.25 16 13.3333V1.66667C16 0.75 15.2 0 14.2222 0Z"
        fill="#212121"
      />
    </symbol>

    <symbol
      id="icon-check"
      viewBox="0 0 16 15"
    >
      <rect
        width="16"
        height="15"
        rx="2"
        fill="#02897a"
      />
      <path
        d="M3.95703 7.75166L3.88825 7.68604L3.81923 7.75141L2.93123 8.59258L2.85486 8.66492L2.93097 8.73753L6.42671 12.0724L6.49574 12.1382L6.56476 12.0724L14.069 4.91352L14.1449 4.84116L14.069 4.76881L13.1873 3.92764L13.1183 3.86183L13.0493 3.92761L6.49577 10.1735L3.95703 7.75166Z"
        fill="white"
        stroke="white"
        stroke-width="0.2"
      />
    </symbol>
    <symbol
      id="success"
      viewBox="0 0 32 32"
    >
      <path
        d="M15.238 21.238c-0.681 0.681-1.794 0.681-2.475 0l-4-4c-0.681-0.681-0.681-1.794 0-2.475s1.794-0.681 2.475 0l2.762 2.763 6.762-6.762c0.681-0.681 1.794-0.681 2.475 0s0.681 1.794 0 2.475l-8 8zM32 16c0 8.837-7.163 16-16 16s-16-7.163-16-16c0-8.838 7.162-16 16-16s16 7.162 16 16zM16 3c-7.181 0-13 5.819-13 13s5.819 13 13 13c7.181 0 13-5.819 13-13s-5.819-13-13-13z"
      ></path>
    </symbol>
    <symbol
      id="warning"
      viewBox="0 0 32 32"
    >
      <path
        d="M16 32c8.837 0 16-7.163 16-16s-7.163-16-16-16-16 7.162-16 16 7.162 16 16 16zM16 8c0.831 0 1.5 0.669 1.5 1.5v7c0 0.831-0.669 1.5-1.5 1.5s-1.5-0.669-1.5-1.5v-7c0-0.831 0.669-1.5 1.5-1.5zM18 22c0 1.106-0.894 2-2 2s-2-0.894-2-2 0.894-2 2-2 2 0.894 2 2z"
      ></path>
    </symbol>
  </defs>
</svg>
